<?xml version="1.0" encoding="UTF-8"?>
<svg id="Layer_1" data-name="Layer 1" xmlns="http://www.w3.org/2000/svg" viewBox="0 0 829.44 822.57">
  <defs>
    <style>
      .cls-1 {
        fill: #ed1c24;
        fill-rule: evenodd;
        stroke-width: 0px;
      }
    </style>
  </defs>
  <path class="cls-1" d="m194.19,96.69c-14.92,11.25-29.24,23.33-42.84,36.16l605.64.3c-10.28-13.22-21.53-25.64-33.66-37.17l-529.13.71h0Z"/>
  <path class="cls-1" d="m70.73,230.62c7.73-12.27,16-24.18,24.77-35.71l699.38-.57c5.63,11.68,10.63,23.76,14.97,36.19l-739.12.1h0Z"/>
  <path class="cls-1" d="m532.27,785.9c-55.13,23.55-114.54,36.67-175.16,36.67s-115.57-12.94-163.84-36.18l339-.49h0Z"/>
  <path class="cls-1" d="m683.74,684.69c-13.05,12.66-26.78,24.62-41.1,35.8l-542.36.02c-11.37-11.38-21.91-23.57-31.55-36.49l615,.67h0Z"/>
  <path class="cls-1" d="m761.53,588.06c-7.57,12.25-15.67,24.17-24.27,35.71l-704.4.04c-5.43-11.69-10.24-23.76-14.39-36.17l743.06.42h0Z"/>
  <path class="cls-1" d="m808.16,488.35c-4.15,12.56-8.83,24.91-14.02,37.03l-790.82-2.13c-1.63-11.52-2.74-23.23-3.32-35.13l808.16.23h0Z"/>
  <path class="cls-1" d="m828.48,391.9c-.61,6.42-1.37,12.89-2.28,19.38-.81,5.71-1.71,11.38-2.74,17.04l-821.88.05c.56-5.67,1.25-11.36,2.05-17.09.92-6.55,1.98-13.05,3.2-19.52l821.65.13h0Z"/>
  <path class="cls-1" d="m825.23,290.95c1.97,11.98,3.39,24.19,4.21,36.6l-805.57.16c4.29-12.36,9.11-24.52,14.42-36.46l786.94-.31h0Z"/>
  <path class="cls-1" d="m636.36,36.08C588.13,12.91,532.84,0,472.72,0s-118.86,12.86-173.52,35.97l337.15.11h0Z"/>
</svg>