<?xml version="1.0" encoding="UTF-8"?>
<svg id="Layer_1" data-name="Layer 1" xmlns="http://www.w3.org/2000/svg" viewBox="0 0 1667.24 531.75">
  <defs>
    <style>
      .cls-1 {
        letter-spacing: 0em;
      }

      .cls-2 {
        font-size: 200px;
      }

      .cls-2, .cls-3 {
        font-family: Montserrat-ExtraBoldItalic, Montserrat;
        font-style: italic;
        font-weight: 700;
      }

      .cls-4 {
        letter-spacing: -.01em;
      }

      .cls-4, .cls-5, .cls-6 {
        fill: #ed1c24;
      }

      .cls-3 {
        font-size: 350px;
      }

      .cls-3, .cls-7 {
        fill: #231f20;
      }

      .cls-5 {
        fill-rule: evenodd;
        stroke-width: 0px;
      }

      .cls-8 {
        letter-spacing: -.03em;
      }
    </style>
  </defs>
  <g>
    <path class="cls-5" d="m383.56,49.78c-7.68,5.79-15.05,12.01-22.06,18.62l311.83.15c-5.3-6.81-11.08-13.2-17.33-19.14l-272.44.36h0Z"/>
    <path class="cls-5" d="m319.99,118.74c3.98-6.32,8.24-12.45,12.75-18.39l360.1-.3c2.9,6.02,5.47,12.23,7.71,18.63l-380.56.05h0Z"/>
    <path class="cls-5" d="m557.63,404.64c-28.38,12.13-58.97,18.88-90.19,18.88s-59.5-6.66-84.36-18.63l174.54-.25h0Z"/>
    <path class="cls-5" d="m635.62,352.53c-6.72,6.52-13.79,12.68-21.16,18.43h-279.25c-5.86-5.85-11.28-12.13-16.24-18.78l316.65.34h0Z"/>
    <path class="cls-5" d="m675.67,302.78c-3.9,6.31-8.07,12.44-12.49,18.39l-362.68.02c-2.8-6.02-5.27-12.23-7.41-18.62l382.58.21h0Z"/>
    <path class="cls-5" d="m699.68,251.44c-2.14,6.47-4.55,12.82-7.22,19.07l-407.17-1.1c-.84-5.93-1.41-11.96-1.71-18.09l416.1.12h0Z"/>
    <path class="cls-5" d="m710.14,201.78c-.31,3.31-.7,6.64-1.17,9.98-.42,2.94-.88,5.86-1.41,8.77l-423.17.03c.29-2.92.64-5.85,1.06-8.8.47-3.37,1.02-6.72,1.65-10.05l423.05.07h0Z"/>
    <path class="cls-5" d="m708.46,149.8c1.02,6.17,1.74,12.45,2.17,18.85l-414.77.08c2.21-6.37,4.69-12.63,7.43-18.77l405.18-.16h0Z"/>
    <path class="cls-5" d="m611.22,18.58c-24.83-11.93-53.3-18.58-84.25-18.58s-61.2,6.62-89.34,18.52l173.59.06h0Z"/>
  </g>
  <text class="cls-3" transform="translate(713.14 313.61)"><tspan class="cls-1" x="0" y="0">R</tspan><tspan class="cls-8" x="255.5" y="0">T</tspan><tspan x="465.5" y="0">AL</tspan></text>
  <text class="cls-2" transform="translate(684.75 478.14)"><tspan class="cls-4" x="0" y="0">P</tspan><tspan class="cls-7" x="144.4" y="0">3</tspan><tspan class="cls-6" x="265" y="0">MI</tspan></text>
  <text class="cls-3" transform="translate(0 313.61)"><tspan x="0" y="0">P</tspan></text>
</svg>